  0
SECTION
  2
HEADER
  9
$ACADVER
  1
AC1027
  9
$ACADMAINTVER
 70
105
  9
$DWGCODEPAGE
  3
ANSI_1252
  9
$LASTSAVEDBY
  1
ezdxf
  9
$REQUIREDVERSIONS
160
0
  9
$INSBASE
 10
0.0
 20
0.0
 30
0.0
  9
$EXTMIN
 10
1e+20
 20
1e+20
 30
1e+20
  9
$EXTMAX
 10
-1e+20
 20
-1e+20
 30
-1e+20
  9
$LIMMIN
 10
0.0
 20
0.0
  9
$LIMMAX
 10
420.0
 20
297.0
  9
$ORTHOMODE
 70
0
  9
$REGENMODE
 70
1
  9
$FILLMODE
 70
1
  9
$QTEXTMODE
 70
0
  9
$MIRRTEXT
 70
1
  9
$LTSCALE
 40
1.0
  9
$ATTMODE
 70
1
  9
$TEXTSIZE
 40
2.5
  9
$TRACEWID
 40
1.0
  9
$TEXTSTYLE
  7
Standard
  9
$CLAYER
  8
0
  9
$CELTYPE
  6
ByLayer
  9
$CECOLOR
 62
256
  9
$CELTSCALE
 40
1.0
  9
$DISPSILH
 70
0
  9
$DIMSCALE
 40
1.0
  9
$DIMASZ
 40
2.5
  9
$DIMEXO
 40
0.625
  9
$DIMDLI
 40
3.75
  9
$DIMRND
 40
0.0
  9
$DIMDLE
 40
0.0
  9
$DIMEXE
 40
1.25
  9
$DIMTP
 40
0.0
  9
$DIMTM
 40
0.0
  9
$DIMTXT
 40
2.5
  9
$DIMCEN
 40
2.5
  9
$DIMTSZ
 40
0.0
  9
$DIMTOL
 70
0
  9
$DIMLIM
 70
0
  9
$DIMTIH
 70
0
  9
$DIMTOH
 70
0
  9
$DIMSE1
 70
0
  9
$DIMSE2
 70
0
  9
$DIMTAD
 70
1
  9
$DIMZIN
 70
8
  9
$DIMBLK
  1

  9
$DIMASO
 70
1
  9
$DIMSHO
 70
1
  9
$DIMPOST
  1

  9
$DIMAPOST
  1

  9
$DIMALT
 70
0
  9
$DIMALTD
 70
3
  9
$DIMALTF
 40
0.03937007874
  9
$DIMLFAC
 40
1.0
  9
$DIMTOFL
 70
1
  9
$DIMTVP
 40
0.0
  9
$DIMTIX
 70
0
  9
$DIMSOXD
 70
0
  9
$DIMSAH
 70
0
  9
$DIMBLK1
  1

  9
$DIMBLK2
  1

  9
$DIMSTYLE
  2
ISO-25
  9
$DIMCLRD
 70
0
  9
$DIMCLRE
 70
0
  9
$DIMCLRT
 70
0
  9
$DIMTFAC
 40
1.0
  9
$DIMGAP
 40
0.625
  9
$DIMJUST
 70
0
  9
$DIMSD1
 70
0
  9
$DIMSD2
 70
0
  9
$DIMTOLJ
 70
0
  9
$DIMTZIN
 70
8
  9
$DIMALTZ
 70
0
  9
$DIMALTTZ
 70
0
  9
$DIMUPT
 70
0
  9
$DIMDEC
 70
2
  9
$DIMTDEC
 70
2
  9
$DIMALTU
 70
2
  9
$DIMALTTD
 70
3
  9
$DIMTXSTY
  7
Standard
  9
$DIMAUNIT
 70
0
  9
$DIMADEC
 70
0
  9
$DIMALTRND
 40
0.0
  9
$DIMAZIN
 70
0
  9
$DIMDSEP
 70
44
  9
$DIMATFIT
 70
3
  9
$DIMFRAC
 70
0
  9
$DIMLDRBLK
  1

  9
$DIMLUNIT
 70
2
  9
$DIMLWD
 70
-2
  9
$DIMLWE
 70
-2
  9
$DIMTMOVE
 70
0
  9
$DIMFXL
 40
1.0
  9
$DIMFXLON
 70
0
  9
$DIMJOGANG
 40
0.785398163397
  9
$DIMTFILL
 70
0
  9
$DIMTFILLCLR
 70
0
  9
$DIMARCSYM
 70
0
  9
$DIMLTYPE
  6

  9
$DIMLTEX1
  6

  9
$DIMLTEX2
  6

  9
$DIMTXTDIRECTION
 70
0
  9
$LUNITS
 70
2
  9
$LUPREC
 70
4
  9
$SKETCHINC
 40
1.0
  9
$FILLETRAD
 40
10.0
  9
$AUNITS
 70
0
  9
$AUPREC
 70
2
  9
$MENU
  1
.
  9
$ELEVATION
 40
0.0
  9
$PELEVATION
 40
0.0
  9
$THICKNESS
 40
0.0
  9
$LIMCHECK
 70
0
  9
$CHAMFERA
 40
0.0
  9
$CHAMFERB
 40
0.0
  9
$CHAMFERC
 40
0.0
  9
$CHAMFERD
 40
0.0
  9
$SKPOLY
 70
0
  9
$TDCREATE
 40
2460999.631134259
  9
$TDUCREATE
 40
2458532.153996898
  9
$TDUPDATE
 40
2460999.631134259
  9
$TDUUPDATE
 40
2458532.1544311
  9
$TDINDWG
 40
0.0
  9
$TDUSRTIMER
 40
0.0
  9
$USRTIMER
 70
1
  9
$ANGBASE
 50
0.0
  9
$ANGDIR
 70
0
  9
$PDMODE
 70
0
  9
$PDSIZE
 40
0.0
  9
$PLINEWID
 40
0.0
  9
$SPLFRAME
 70
0
  9
$SPLINETYPE
 70
6
  9
$SPLINESEGS
 70
8
  9
$HANDSEED
  5
84
  9
$SURFTAB1
 70
6
  9
$SURFTAB2
 70
6
  9
$SURFTYPE
 70
6
  9
$SURFU
 70
6
  9
$SURFV
 70
6
  9
$UCSBASE
  2

  9
$UCSNAME
  2

  9
$UCSORG
 10
0.0
 20
0.0
 30
0.0
  9
$UCSXDIR
 10
1.0
 20
0.0
 30
0.0
  9
$UCSYDIR
 10
0.0
 20
1.0
 30
0.0
  9
$UCSORTHOREF
  2

  9
$UCSORTHOVIEW
 70
0
  9
$UCSORGTOP
 10
0.0
 20
0.0
 30
0.0
  9
$UCSORGBOTTOM
 10
0.0
 20
0.0
 30
0.0
  9
$UCSORGLEFT
 10
0.0
 20
0.0
 30
0.0
  9
$UCSORGRIGHT
 10
0.0
 20
0.0
 30
0.0
  9
$UCSORGFRONT
 10
0.0
 20
0.0
 30
0.0
  9
$UCSORGBACK
 10
0.0
 20
0.0
 30
0.0
  9
$PUCSBASE
  2

  9
$PUCSNAME
  2

  9
$PUCSORG
 10
0.0
 20
0.0
 30
0.0
  9
$PUCSXDIR
 10
1.0
 20
0.0
 30
0.0
  9
$PUCSYDIR
 10
0.0
 20
1.0
 30
0.0
  9
$PUCSORTHOREF
  2

  9
$PUCSORTHOVIEW
 70
0
  9
$PUCSORGTOP
 10
0.0
 20
0.0
 30
0.0
  9
$PUCSORGBOTTOM
 10
0.0
 20
0.0
 30
0.0
  9
$PUCSORGLEFT
 10
0.0
 20
0.0
 30
0.0
  9
$PUCSORGRIGHT
 10
0.0
 20
0.0
 30
0.0
  9
$PUCSORGFRONT
 10
0.0
 20
0.0
 30
0.0
  9
$PUCSORGBACK
 10
0.0
 20
0.0
 30
0.0
  9
$USERI1
 70
0
  9
$USERI2
 70
0
  9
$USERI3
 70
0
  9
$USERI4
 70
0
  9
$USERI5
 70
0
  9
$USERR1
 40
0.0
  9
$USERR2
 40
0.0
  9
$USERR3
 40
0.0
  9
$USERR4
 40
0.0
  9
$USERR5
 40
0.0
  9
$WORLDVIEW
 70
1
  9
$SHADEDGE
 70
3
  9
$SHADEDIF
 70
70
  9
$TILEMODE
 70
1
  9
$MAXACTVP
 70
64
  9
$PINSBASE
 10
0.0
 20
0.0
 30
0.0
  9
$PLIMCHECK
 70
0
  9
$PEXTMIN
 10
1e+20
 20
1e+20
 30
1e+20
  9
$PEXTMAX
 10
-1e+20
 20
-1e+20
 30
-1e+20
  9
$PLIMMIN
 10
0.0
 20
0.0
  9
$PLIMMAX
 10
420.0
 20
297.0
  9
$UNITMODE
 70
0
  9
$VISRETAIN
 70
1
  9
$PLINEGEN
 70
0
  9
$PSLTSCALE
 70
1
  9
$TREEDEPTH
 70
3020
  9
$CMLSTYLE
  2
Standard
  9
$CMLJUST
 70
0
  9
$CMLSCALE
 40
20.0
  9
$PROXYGRAPHICS
 70
1
  9
$MEASUREMENT
 70
1
  9
$CELWEIGHT
370
-1
  9
$ENDCAPS
280
0
  9
$JOINSTYLE
280
0
  9
$LWDISPLAY
290
0
  9
$INSUNITS
 70
6
  9
$HYPERLINKBASE
  1

  9
$STYLESHEET
  1

  9
$XEDIT
290
1
  9
$CEPSNTYPE
380
0
  9
$PSTYLEMODE
290
1
  9
$FINGERPRINTGUID
  2
{B2E5E303-B0F0-4F0C-96F6-A5ED8DA57837}
  9
$VERSIONGUID
  2
{85EDCF8D-CA71-4CE7-8FB2-CBD49E00C5F6}
  9
$EXTNAMES
290
1
  9
$PSVPSCALE
 40
0.0
  9
$OLESTARTUP
290
0
  9
$SORTENTS
280
127
  9
$INDEXCTL
280
0
  9
$HIDETEXT
280
1
  9
$XCLIPFRAME
280
1
  9
$HALOGAP
280
0
  9
$OBSCOLOR
 70
257
  9
$OBSLTYPE
280
0
  9
$INTERSECTIONDISPLAY
280
0
  9
$INTERSECTIONCOLOR
 70
257
  9
$DIMASSOC
280
2
  9
$PROJECTNAME
  1

  9
$CAMERADISPLAY
290
0
  9
$LENSLENGTH
 40
50.0
  9
$CAMERAHEIGHT
 40
0.0
  9
$STEPSPERSEC
 40
24.0
  9
$STEPSIZE
 40
100.0
  9
$3DDWFPREC
 40
2.0
  9
$PSOLWIDTH
 40
0.005
  9
$PSOLHEIGHT
 40
0.08
  9
$LOFTANG1
 40
1.570796326795
  9
$LOFTANG2
 40
1.570796326795
  9
$LOFTMAG1
 40
0.0
  9
$LOFTMAG2
 40
0.0
  9
$LOFTPARAM
 70
7
  9
$LOFTNORMALS
280
1
  9
$LATITUDE
 40
37.795
  9
$LONGITUDE
 40
-122.394
  9
$NORTHDIRECTION
 40
0.0
  9
$TIMEZONE
 70
-8000
  9
$LIGHTGLYPHDISPLAY
280
1
  9
$TILEMODELIGHTSYNCH
280
1
  9
$CMATERIAL
347
20
  9
$SOLIDHIST
280
0
  9
$SHOWHIST
280
1
  9
$DWFFRAME
280
2
  9
$DGNFRAME
280
2
  9
$REALWORLDSCALE
290
1
  9
$INTERFERECOLOR
 62
256
  9
$CSHADOW
280
0
  9
$SHADOWPLANELOCATION
 40
0.0
  0
ENDSEC
  0
SECTION
  2
CLASSES
  0
CLASS
  1
ACDBDICTIONARYWDFLT
  2
AcDbDictionaryWithDefault
  3
ObjectDBX Classes
 90
0
 91
0
280
0
281
0
  0
CLASS
  1
SUN
  2
AcDbSun
  3
SCENEOE
 90
1153
 91
0
280
0
281
0
  0
CLASS
  1
VISUALSTYLE
  2
AcDbVisualStyle
  3
ObjectDBX Classes
 90
4095
 91
0
280
0
281
0
  0
CLASS
  1
MATERIAL
  2
AcDbMaterial
  3
ObjectDBX Classes
 90
1153
 91
0
280
0
281
0
  0
CLASS
  1
SCALE
  2
AcDbScale
  3
ObjectDBX Classes
 90
1153
 91
0
280
0
281
0
  0
CLASS
  1
TABLESTYLE
  2
AcDbTableStyle
  3
ObjectDBX Classes
 90
4095
 91
0
280
0
281
0
  0
CLASS
  1
MLEADERSTYLE
  2
AcDbMLeaderStyle
  3
ACDB_MLEADERSTYLE_CLASS
 90
4095
 91
0
280
0
281
0
  0
CLASS
  1
DICTIONARYVAR
  2
AcDbDictionaryVar
  3
ObjectDBX Classes
 90
0
 91
0
280
0
281
0
  0
CLASS
  1
CELLSTYLEMAP
  2
AcDbCellStyleMap
  3
ObjectDBX Classes
 90
1152
 91
0
280
0
281
0
  0
CLASS
  1
MENTALRAYRENDERSETTINGS
  2
AcDbMentalRayRenderSettings
  3
SCENEOE
 90
1024
 91
0
280
0
281
0
  0
CLASS
  1
ACDBDETAILVIEWSTYLE
  2
AcDbDetailViewStyle
  3
ObjectDBX Classes
 90
1025
 91
0
280
0
281
0
  0
CLASS
  1
ACDBSECTIONVIEWSTYLE
  2
AcDbSectionViewStyle
  3
ObjectDBX Classes
 90
1025
 91
0
280
0
281
0
  0
CLASS
  1
RASTERVARIABLES
  2
AcDbRasterVariables
  3
ISM
 90
0
 91
0
280
0
281
0
  0
CLASS
  1
LAYOUT
  2
AcDbLayout
  3
ObjectDBX Classes
 90
0
 91
0
280
0
281
0
  0
CLASS
  1
ACDBPLACEHOLDER
  2
AcDbPlaceHolder
  3
ObjectDBX Classes
 90
0
 91
0
280
0
281
0
  0
ENDSEC
  0
SECTION
  2
TABLES
  0
TABLE
  2
VPORT
  5
8
330
0
100
AcDbSymbolTable
 70
1
  0
VPORT
  5
23
330
8
100
AcDbSymbolTableRecord
100
AcDbViewportTableRecord
  2
*Active
 70
0
 10
0.0
 20
0.0
 11
1.0
 21
1.0
 12
0.0
 22
0.0
 13
0.0
 23
0.0
 14
0.5
 24
0.5
 15
0.5
 25
0.5
 16
0.0
 26
0.0
 36
1.0
 17
0.0
 27
0.0
 37
0.0
 40
1000.0
 41
1.34
 42
50.0
 43
0.0
 44
0.0
 50
0.0
 51
0.0
 71
0
 72
1000
 73
1
 74
3
 75
0
 76
0
 77
0
 78
0
281
0
 65
0
146
0.0
  0
ENDTAB
  0
TABLE
  2
LTYPE
  5
2
330
0
100
AcDbSymbolTable
 70
3
  0
LTYPE
  5
24
330
2
100
AcDbSymbolTableRecord
100
AcDbLinetypeTableRecord
  2
ByBlock
 70
0
  3

 72
65
 73
0
 40
0.0
  0
LTYPE
  5
25
330
2
100
AcDbSymbolTableRecord
100
AcDbLinetypeTableRecord
  2
ByLayer
 70
0
  3

 72
65
 73
0
 40
0.0
  0
LTYPE
  5
26
330
2
100
AcDbSymbolTableRecord
100
AcDbLinetypeTableRecord
  2
Continuous
 70
0
  3

 72
65
 73
0
 40
0.0
  0
ENDTAB
  0
TABLE
  2
LAYER
  5
1
330
0
100
AcDbSymbolTable
 70
3
  0
LAYER
  5
27
330
1
100
AcDbSymbolTableRecord
100
AcDbLayerTableRecord
  2
0
 70
0
 62
7
  6
Continuous
370
-3
390
13
347
21
  0
LAYER
  5
28
330
1
100
AcDbSymbolTableRecord
100
AcDbLayerTableRecord
  2
Defpoints
 70
0
 62
7
  6
Continuous
290
0
370
-3
390
13
347
21
  0
LAYER
  5
2F
330
1
100
AcDbSymbolTableRecord
100
AcDbLayerTableRecord
  2
TestLayer
 70
0
 62
7
  6
Continuous
370
-3
390
13
347
21
  0
ENDTAB
  0
TABLE
  2
STYLE
  5
5
330
0
100
AcDbSymbolTable
 70
1
  0
STYLE
  5
29
330
5
100
AcDbSymbolTableRecord
100
AcDbTextStyleTableRecord
  2
Standard
 70
0
 40
0.0
 41
1.0
 50
0.0
 71
0
 42
2.5
  3
txt
  4

  0
ENDTAB
  0
TABLE
  2
VIEW
  5
7
330
0
100
AcDbSymbolTable
 70
0
  0
ENDTAB
  0
TABLE
  2
UCS
  5
6
330
0
100
AcDbSymbolTable
 70
0
  0
ENDTAB
  0
TABLE
  2
APPID
  5
3
330
0
100
AcDbSymbolTable
 70
3
  0
APPID
  5
2A
330
3
100
AcDbSymbolTableRecord
100
AcDbRegAppTableRecord
  2
ACAD
 70
0
  0
APPID
  5
81
330
3
100
AcDbSymbolTableRecord
100
AcDbRegAppTableRecord
  2
HATCHBACKGROUNDCOLOR
 70
0
  0
APPID
  5
82
330
3
100
AcDbSymbolTableRecord
100
AcDbRegAppTableRecord
  2
EZDXF
 70
0
  0
ENDTAB
  0
TABLE
  2
DIMSTYLE
  5
4
330
0
100
AcDbSymbolTable
 70
1
100
AcDbDimStyleTable
  0
DIMSTYLE
105
2B
330
4
100
AcDbSymbolTableRecord
100
AcDbDimStyleTableRecord
  2
Standard
 70
0
 40
1.0
 41
2.5
 42
0.625
 43
3.75
 44
1.25
 45
0.0
 46
0.0
 47
0.0
 48
0.0
 49
2.5
140
2.5
141
2.5
142
0.0
143
0.03937007874
144
1.0
145
0.0
146
1.0
147
0.625
148
0.0
 69
0
 70
0
 71
0
 72
0
 73
0
 74
0
 75
0
 76
0
 77
1
 78
8
 79
3
170
0
171
3
172
1
173
0
174
0
175
0
176
0
177
0
178
0
179
2
271
2
272
2
273
2
274
3
275
0
276
0
277
2
278
44
279
0
280
0
281
0
282
0
283
0
284
8
285
0
286
0
288
0
289
3
290
0
371
-2
372
-2
  0
ENDTAB
  0
TABLE
  2
BLOCK_RECORD
  5
9
330
0
100
AcDbSymbolTable
 70
2
  0
BLOCK_RECORD
  5
17
330
9
100
AcDbSymbolTableRecord
100
AcDbBlockTableRecord
  2
*Model_Space
340
1A
 70
0
280
1
281
0
  0
BLOCK_RECORD
  5
1B
330
9
100
AcDbSymbolTableRecord
100
AcDbBlockTableRecord
  2
*Paper_Space
340
1E
 70
0
280
1
281
0
  0
ENDTAB
  0
ENDSEC
  0
SECTION
  2
BLOCKS
  0
BLOCK
  5
18
330
17
100
AcDbEntity
  8
0
100
AcDbBlockBegin
  2
*Model_Space
 70
0
 10
0.0
 20
0.0
 30
0.0
  3
*Model_Space
  1

  0
ENDBLK
  5
19
330
17
100
AcDbEntity
  8
0
100
AcDbBlockEnd
  0
BLOCK
  5
1C
330
1B
100
AcDbEntity
  8
0
100
AcDbBlockBegin
  2
*Paper_Space
 70
0
 10
0.0
 20
0.0
 30
0.0
  3
*Paper_Space
  1

  0
ENDBLK
  5
1D
330
1B
100
AcDbEntity
  8
0
100
AcDbBlockEnd
  0
ENDSEC
  0
SECTION
  2
ENTITIES
  0
3DFACE
  5
30
330
17
100
AcDbEntity
  8
TestLayer
100
AcDbFace
 10
0.0
 20
0.0
 30
1.0
 11
1.1111111111111112
 21
0.0
 31
1.8961922010299563
 12
1.1111111111111112
 22
1.1111111111111112
 32
1.339858222732185
 13
0.0
 23
1.1111111111111112
 33
0.4436660217022285
  0
3DFACE
  5
31
330
17
100
AcDbEntity
  8
TestLayer
100
AcDbFace
 10
1.1111111111111112
 20
0.0
 30
1.8961922010299563
 11
2.2222222222222223
 21
0.0
 31
1.795220057023049
 12
2.2222222222222223
 22
1.1111111111111112
 32
1.2388860787252776
 13
1.1111111111111112
 23
1.1111111111111112
 33
1.339858222732185
  0
3DFACE
  5
32
330
17
100
AcDbEntity
  8
TestLayer
100
AcDbFace
 10
2.2222222222222223
 20
0.0
 30
1.795220057023049
 11
3.3333333333333335
 21
0.0
 31
0.8094320371245146
 12
3.3333333333333335
 22
1.1111111111111112
 32
0.25309805882674313
 13
2.2222222222222223
 23
1.1111111111111112
 33
1.2388860787252776
  0
3DFACE
  5
33
330
17
100
AcDbEntity
  8
TestLayer
100
AcDbFace
 10
3.3333333333333335
 20
0.0
 30
0.8094320371245146
 11
4.444444444444445
 21
0.0
 31
0.035682883071221805
 12
4.444444444444445
 22
1.1111111111111112
 32
-0.5206510952265497
 13
3.3333333333333335
 23
1.1111111111111112
 33
0.25309805882674313
  0
3DFACE
  5
34
330
17
100
AcDbEntity
  8
TestLayer
100
AcDbFace
 10
4.444444444444445
 20
0.0
 30
0.035682883071221805
 11
5.555555555555555
 21
0.0
 31
0.3348984850211776
 12
5.555555555555555
 22
1.1111111111111112
 32
-0.2214354932765939
 13
4.444444444444445
 23
1.1111111111111112
 33
-0.5206510952265497
  0
3DFACE
  5
35
330
17
100
AcDbEntity
  8
TestLayer
100
AcDbFace
 10
5.555555555555555
 20
0.0
 30
0.3348984850211776
 11
6.666666666666667
 21
0.0
 31
1.37415123057122
 12
6.666666666666667
 22
1.1111111111111112
 32
0.8178172522734485
 13
5.555555555555555
 23
1.1111111111111112
 33
-0.2214354932765939
  0
3DFACE
  5
36
330
17
100
AcDbEntity
  8
TestLayer
100
AcDbFace
 10
6.666666666666667
 20
0.0
 30
1.37415123057122
 11
7.777777777777779
 21
0.0
 31
1.9970978909438748
 12
7.777777777777779
 22
1.1111111111111112
 32
1.4407639126461034
 13
6.666666666666667
 23
1.1111111111111112
 33
0.8178172522734485
  0
3DFACE
  5
37
330
17
100
AcDbEntity
  8
TestLayer
100
AcDbFace
 10
7.777777777777779
 20
0.0
 30
1.9970978909438748
 11
8.88888888888889
 21
0.0
 31
1.510605678474283
 12
8.88888888888889
 22
1.1111111111111112
 32
0.9542717001765115
 13
7.777777777777779
 23
1.1111111111111112
 33
1.4407639126461034
  0
3DFACE
  5
38
330
17
100
AcDbEntity
  8
TestLayer
100
AcDbFace
 10
8.88888888888889
 20
0.0
 30
1.510605678474283
 11
10.0
 21
0.0
 31
0.4559788891106302
 12
10.0
 22
1.1111111111111112
 32
-0.10035508918714126
 13
8.88888888888889
 23
1.1111111111111112
 33
0.9542717001765115
  0
3DFACE
  5
39
330
17
100
AcDbEntity
  8
TestLayer
100
AcDbFace
 10
0.0
 20
1.1111111111111112
 30
0.4436660217022285
 11
1.1111111111111112
 21
1.1111111111111112
 31
1.339858222732185
 12
1.1111111111111112
 22
2.2222222222222223
 32
0.28987127865612095
 13
0.0
 23
2.2222222222222223
 33
-0.6063209223738354
  0
3DFACE
  5
3A
330
17
100
AcDbEntity
  8
TestLayer
100
AcDbFace
 10
1.1111111111111112
 20
1.1111111111111112
 30
1.339858222732185
 11
2.2222222222222223
 21
1.1111111111111112
 31
1.2388860787252776
 12
2.2222222222222223
 22
2.2222222222222223
 32
0.1888991346492137
 13
1.1111111111111112
 23
2.2222222222222223
 33
0.28987127865612095
  0
3DFACE
  5
3B
330
17
100
AcDbEntity
  8
TestLayer
100
AcDbFace
 10
2.2222222222222223
 20
1.1111111111111112
 30
1.2388860787252776
 11
3.3333333333333335
 21
1.1111111111111112
 31
0.25309805882674313
 12
3.3333333333333335
 22
2.2222222222222223
 32
-0.7968888852493208
 13
2.2222222222222223
 23
2.2222222222222223
 33
0.1888991346492137
  0
3DFACE
  5
3C
330
17
100
AcDbEntity
  8
TestLayer
100
AcDbFace
 10
3.3333333333333335
 20
1.1111111111111112
 30
0.25309805882674313
 11
4.444444444444445
 21
1.1111111111111112
 31
-0.5206510952265497
 12
4.444444444444445
 22
2.2222222222222223
 32
-1.5706380393026136
 13
3.3333333333333335
 23
2.2222222222222223
 33
-0.7968888852493208
  0
3DFACE
  5
3D
330
17
100
AcDbEntity
  8
TestLayer
100
AcDbFace
 10
4.444444444444445
 20
1.1111111111111112
 30
-0.5206510952265497
 11
5.555555555555555
 21
1.1111111111111112
 31
-0.2214354932765939
 12
5.555555555555555
 22
2.2222222222222223
 32
-1.271422437352658
 13
4.444444444444445
 23
2.2222222222222223
 33
-1.5706380393026136
  0
3DFACE
  5
3E
330
17
100
AcDbEntity
  8
TestLayer
100
AcDbFace
 10
5.555555555555555
 20
1.1111111111111112
 30
-0.2214354932765939
 11
6.666666666666667
 21
1.1111111111111112
 31
0.8178172522734485
 12
6.666666666666667
 22
2.2222222222222223
 32
-0.23216969180261543
 13
5.555555555555555
 23
2.2222222222222223
 33
-1.271422437352658
  0
3DFACE
  5
3F
330
17
100
AcDbEntity
  8
TestLayer
100
AcDbFace
 10
6.666666666666667
 20
1.1111111111111112
 30
0.8178172522734485
 11
7.777777777777779
 21
1.1111111111111112
 31
1.4407639126461034
 12
7.777777777777779
 22
2.2222222222222223
 32
0.3907769685700395
 13
6.666666666666667
 23
2.2222222222222223
 33
-0.23216969180261543
  0
3DFACE
  5
40
330
17
100
AcDbEntity
  8
TestLayer
100
AcDbFace
 10
7.777777777777779
 20
1.1111111111111112
 30
1.4407639126461034
 11
8.88888888888889
 21
1.1111111111111112
 31
0.9542717001765115
 12
8.88888888888889
 22
2.2222222222222223
 32
-0.09571524389955244
 13
7.777777777777779
 23
2.2222222222222223
 33
0.3907769685700395
  0
3DFACE
  5
41
330
17
100
AcDbEntity
  8
TestLayer
100
AcDbFace
 10
8.88888888888889
 20
1.1111111111111112
 30
0.9542717001765115
 11
10.0
 21
1.1111111111111112
 31
-0.10035508918714126
 12
10.0
 22
2.2222222222222223
 32
-1.1503420332632053
 13
8.88888888888889
 23
2.2222222222222223
 33
-0.09571524389955244
  0
3DFACE
  5
42
330
17
100
AcDbEntity
  8
TestLayer
100
AcDbFace
 10
0.0
 20
2.2222222222222223
 30
-0.6063209223738354
 11
1.1111111111111112
 21
2.2222222222222223
 31
0.28987127865612095
 12
1.1111111111111112
 22
3.3333333333333335
 32
-0.08548180368112268
 13
0.0
 23
3.3333333333333335
 33
-0.981674004711079
  0
3DFACE
  5
43
330
17
100
AcDbEntity
  8
TestLayer
100
AcDbFace
 10
1.1111111111111112
 20
2.2222222222222223
 30
0.28987127865612095
 11
2.2222222222222223
 21
2.2222222222222223
 31
0.1888991346492137
 12
2.2222222222222223
 22
3.3333333333333335
 32
-0.18645394768802992
 13
1.1111111111111112
 23
3.3333333333333335
 33
-0.08548180368112268
  0
3DFACE
  5
44
330
17
100
AcDbEntity
  8
TestLayer
100
AcDbFace
 10
2.2222222222222223
 20
2.2222222222222223
 30
0.1888991346492137
 11
3.3333333333333335
 21
2.2222222222222223
 31
-0.7968888852493208
 12
3.3333333333333335
 22
3.3333333333333335
 32
-1.1722419675865643
 13
2.2222222222222223
 23
3.3333333333333335
 33
-0.18645394768802992
  0
3DFACE
  5
45
330
17
100
AcDbEntity
  8
TestLayer
100
AcDbFace
 10
3.3333333333333335
 20
2.2222222222222223
 30
-0.7968888852493208
 11
4.444444444444445
 21
2.2222222222222223
 31
-1.5706380393026136
 12
4.444444444444445
 22
3.3333333333333335
 32
-1.945991121639857
 13
3.3333333333333335
 23
3.3333333333333335
 33
-1.1722419675865643
  0
3DFACE
  5
46
330
17
100
AcDbEntity
  8
TestLayer
100
AcDbFace
 10
4.444444444444445
 20
2.2222222222222223
 30
-1.5706380393026136
 11
5.555555555555555
 21
2.2222222222222223
 31
-1.271422437352658
 12
5.555555555555555
 22
3.3333333333333335
 32
-1.6467755196899014
 13
4.444444444444445
 23
3.3333333333333335
 33
-1.945991121639857
  0
3DFACE
  5
47
330
17
100
AcDbEntity
  8
TestLayer
100
AcDbFace
 10
5.555555555555555
 20
2.2222222222222223
 30
-1.271422437352658
 11
6.666666666666667
 21
2.2222222222222223
 31
-0.23216969180261543
 12
6.666666666666667
 22
3.3333333333333335
 32
-0.607522774139859
 13
5.555555555555555
 23
3.3333333333333335
 33
-1.6467755196899014
  0
3DFACE
  5
48
330
17
100
AcDbEntity
  8
TestLayer
100
AcDbFace
 10
6.666666666666667
 20
2.2222222222222223
 30
-0.23216969180261543
 11
7.777777777777779
 21
2.2222222222222223
 31
0.3907769685700395
 12
7.777777777777779
 22
3.3333333333333335
 32
0.015423886232795891
 13
6.666666666666667
 23
3.3333333333333335
 33
-0.607522774139859
  0
3DFACE
  5
49
330
17
100
AcDbEntity
  8
TestLayer
100
AcDbFace
 10
7.777777777777779
 20
2.2222222222222223
 30
0.3907769685700395
 11
8.88888888888889
 21
2.2222222222222223
 31
-0.09571524389955244
 12
8.88888888888889
 22
3.3333333333333335
 32
-0.47106832623679606
 13
7.777777777777779
 23
3.3333333333333335
 33
0.015423886232795891
  0
3DFACE
  5
4A
330
17
100
AcDbEntity
  8
TestLayer
100
AcDbFace
 10
8.88888888888889
 20
2.2222222222222223
 30
-0.09571524389955244
 11
10.0
 21
2.2222222222222223
 31
-1.1503420332632053
 12
10.0
 22
3.3333333333333335
 32
-1.5256951156004488
 13
8.88888888888889
 23
3.3333333333333335
 33
-0.47106832623679606
  0
3DFACE
  5
4B
330
17
100
AcDbEntity
  8
TestLayer
100
AcDbFace
 10
0.0
 20
3.3333333333333335
 30
-0.981674004711079
 11
1.1111111111111112
 21
3.3333333333333335
 31
-0.08548180368112268
 12
1.1111111111111112
 22
4.444444444444445
 32
0.6314423228464734
 13
0.0
 23
4.444444444444445
 33
-0.2647498781834829
  0
3DFACE
  5
4C
330
17
100
AcDbEntity
  8
TestLayer
100
AcDbFace
 10
1.1111111111111112
 20
3.3333333333333335
 30
-0.08548180368112268
 11
2.2222222222222223
 21
3.3333333333333335
 31
-0.18645394768802992
 12
2.2222222222222223
 22
4.444444444444445
 32
0.5304701788395663
 13
1.1111111111111112
 23
4.444444444444445
 33
0.6314423228464734
  0
3DFACE
  5
4D
330
17
100
AcDbEntity
  8
TestLayer
100
AcDbFace
 10
2.2222222222222223
 20
3.3333333333333335
 30
-0.18645394768802992
 11
3.3333333333333335
 21
3.3333333333333335
 31
-1.1722419675865643
 12
3.3333333333333335
 22
4.444444444444445
 32
-0.4553178410589683
 13
2.2222222222222223
 23
4.444444444444445
 33
0.5304701788395663
  0
3DFACE
  5
4E
330
17
100
AcDbEntity
  8
TestLayer
100
AcDbFace
 10
3.3333333333333335
 20
3.3333333333333335
 30
-1.1722419675865643
 11
4.444444444444445
 21
3.3333333333333335
 31
-1.945991121639857
 12
4.444444444444445
 22
4.444444444444445
 32
-1.229066995112261
 13
3.3333333333333335
 23
4.444444444444445
 33
-0.4553178410589683
  0
3DFACE
  5
4F
330
17
100
AcDbEntity
  8
TestLayer
100
AcDbFace
 10
4.444444444444445
 20
3.3333333333333335
 30
-1.945991121639857
 11
5.555555555555555
 21
3.3333333333333335
 31
-1.6467755196899014
 12
5.555555555555555
 22
4.444444444444445
 32
-0.9298513931623054
 13
4.444444444444445
 23
4.444444444444445
 33
-1.229066995112261
  0
3DFACE
  5
50
330
17
100
AcDbEntity
  8
TestLayer
100
AcDbFace
 10
5.555555555555555
 20
3.3333333333333335
 30
-1.6467755196899014
 11
6.666666666666667
 21
3.3333333333333335
 31
-0.607522774139859
 12
6.666666666666667
 22
4.444444444444445
 32
0.10940135238773707
 13
5.555555555555555
 23
4.444444444444445
 33
-0.9298513931623054
  0
3DFACE
  5
51
330
17
100
AcDbEntity
  8
TestLayer
100
AcDbFace
 10
6.666666666666667
 20
3.3333333333333335
 30
-0.607522774139859
 11
7.777777777777779
 21
3.3333333333333335
 31
0.015423886232795891
 12
7.777777777777779
 22
4.444444444444445
 32
0.7323480127603921
 13
6.666666666666667
 23
4.444444444444445
 33
0.10940135238773707
  0
3DFACE
  5
52
330
17
100
AcDbEntity
  8
TestLayer
100
AcDbFace
 10
7.777777777777779
 20
3.3333333333333335
 30
0.015423886232795891
 11
8.88888888888889
 21
3.3333333333333335
 31
-0.47106832623679606
 12
8.88888888888889
 22
4.444444444444445
 32
0.24585580029080006
 13
7.777777777777779
 23
4.444444444444445
 33
0.7323480127603921
  0
3DFACE
  5
53
330
17
100
AcDbEntity
  8
TestLayer
100
AcDbFace
 10
8.88888888888889
 20
3.3333333333333335
 30
-0.47106832623679606
 11
10.0
 21
3.3333333333333335
 31
-1.5256951156004488
 12
10.0
 22
4.444444444444445
 32
-0.8087709890728527
 13
8.88888888888889
 23
4.444444444444445
 33
0.24585580029080006
  0
3DFACE
  5
54
330
17
100
AcDbEntity
  8
TestLayer
100
AcDbFace
 10
0.0
 20
4.444444444444445
 30
-0.2647498781834829
 11
1.1111111111111112
 21
4.444444444444445
 31
0.6314423228464734
 12
1.1111111111111112
 22
5.555555555555555
 32
1.642945155341404
 13
0.0
 23
5.555555555555555
 33
0.7467529543114477
  0
3DFACE
  5
55
330
17
100
AcDbEntity
  8
TestLayer
100
AcDbFace
 10
1.1111111111111112
 20
4.444444444444445
 30
0.6314423228464734
 11
2.2222222222222223
 21
4.444444444444445
 31
0.5304701788395663
 12
2.2222222222222223
 22
5.555555555555555
 32
1.541973011334497
 13
1.1111111111111112
 23
5.555555555555555
 33
1.642945155341404
  0
3DFACE
  5
56
330
17
100
AcDbEntity
  8
TestLayer
100
AcDbFace
 10
2.2222222222222223
 20
4.444444444444445
 30
0.5304701788395663
 11
3.3333333333333335
 21
4.444444444444445
 31
-0.4553178410589683
 12
3.3333333333333335
 22
5.555555555555555
 32
0.5561849914359623
 13
2.2222222222222223
 23
5.555555555555555
 33
1.541973011334497
  0
3DFACE
  5
57
330
17
100
AcDbEntity
  8
TestLayer
100
AcDbFace
 10
3.3333333333333335
 20
4.444444444444445
 30
-0.4553178410589683
 11
4.444444444444445
 21
4.444444444444445
 31
-1.229066995112261
 12
4.444444444444445
 22
5.555555555555555
 32
-0.21756416261733047
 13
3.3333333333333335
 23
5.555555555555555
 33
0.5561849914359623
  0
3DFACE
  5
58
330
17
100
AcDbEntity
  8
TestLayer
100
AcDbFace
 10
4.444444444444445
 20
4.444444444444445
 30
-1.229066995112261
 11
5.555555555555555
 21
4.444444444444445
 31
-0.9298513931623054
 12
5.555555555555555
 22
5.555555555555555
 32
0.08165143933262531
 13
4.444444444444445
 23
5.555555555555555
 33
-0.21756416261733047
  0
3DFACE
  5
59
330
17
100
AcDbEntity
  8
TestLayer
100
AcDbFace
 10
5.555555555555555
 20
4.444444444444445
 30
-0.9298513931623054
 11
6.666666666666667
 21
4.444444444444445
 31
0.10940135238773707
 12
6.666666666666667
 22
5.555555555555555
 32
1.1209041848826677
 13
5.555555555555555
 23
5.555555555555555
 33
0.08165143933262531
  0
3DFACE
  5
5A
330
17
100
AcDbEntity
  8
TestLayer
100
AcDbFace
 10
6.666666666666667
 20
4.444444444444445
 30
0.10940135238773707
 11
7.777777777777779
 21
4.444444444444445
 31
0.7323480127603921
 12
7.777777777777779
 22
5.555555555555555
 32
1.7438508452553227
 13
6.666666666666667
 23
5.555555555555555
 33
1.1209041848826677
  0
3DFACE
  5
5B
330
17
100
AcDbEntity
  8
TestLayer
100
AcDbFace
 10
7.777777777777779
 20
4.444444444444445
 30
0.7323480127603921
 11
8.88888888888889
 21
4.444444444444445
 31
0.24585580029080006
 12
8.88888888888889
 22
5.555555555555555
 32
1.2573586327857307
 13
7.777777777777779
 23
5.555555555555555
 33
1.7438508452553227
  0
3DFACE
  5
5C
330
17
100
AcDbEntity
  8
TestLayer
100
AcDbFace
 10
8.88888888888889
 20
4.444444444444445
 30
0.24585580029080006
 11
10.0
 21
4.444444444444445
 31
-0.8087709890728527
 12
10.0
 22
5.555555555555555
 32
0.20273184342207795
 13
8.88888888888889
 23
5.555555555555555
 33
1.2573586327857307
  0
3DFACE
  5
5D
330
17
100
AcDbEntity
  8
TestLayer
100
AcDbFace
 10
0.0
 20
5.555555555555555
 30
0.7467529543114477
 11
1.1111111111111112
 21
5.555555555555555
 31
1.642945155341404
 12
1.1111111111111112
 22
6.666666666666667
 32
1.8235599040809316
 13
0.0
 23
6.666666666666667
 33
0.9273677030509753
  0
3DFACE
  5
5E
330
17
100
AcDbEntity
  8
TestLayer
100
AcDbFace
 10
1.1111111111111112
 20
5.555555555555555
 30
1.642945155341404
 11
2.2222222222222223
 21
5.555555555555555
 31
1.541973011334497
 12
2.2222222222222223
 22
6.666666666666667
 32
1.7225877600740245
 13
1.1111111111111112
 23
6.666666666666667
 33
1.8235599040809316
  0
3DFACE
  5
5F
330
17
100
AcDbEntity
  8
TestLayer
100
AcDbFace
 10
2.2222222222222223
 20
5.555555555555555
 30
1.541973011334497
 11
3.3333333333333335
 21
5.555555555555555
 31
0.5561849914359623
 12
3.3333333333333335
 22
6.666666666666667
 32
0.7367997401754899
 13
2.2222222222222223
 23
6.666666666666667
 33
1.7225877600740245
  0
3DFACE
  5
60
330
17
100
AcDbEntity
  8
TestLayer
100
AcDbFace
 10
3.3333333333333335
 20
5.555555555555555
 30
0.5561849914359623
 11
4.444444444444445
 21
5.555555555555555
 31
-0.21756416261733047
 12
4.444444444444445
 22
6.666666666666667
 32
-0.03694941387780293
 13
3.3333333333333335
 23
6.666666666666667
 33
0.7367997401754899
  0
3DFACE
  5
61
330
17
100
AcDbEntity
  8
TestLayer
100
AcDbFace
 10
4.444444444444445
 20
5.555555555555555
 30
-0.21756416261733047
 11
5.555555555555555
 21
5.555555555555555
 31
0.08165143933262531
 12
5.555555555555555
 22
6.666666666666667
 32
0.26226618807215285
 13
4.444444444444445
 23
6.666666666666667
 33
-0.03694941387780293
  0
3DFACE
  5
62
330
17
100
AcDbEntity
  8
TestLayer
100
AcDbFace
 10
5.555555555555555
 20
5.555555555555555
 30
0.08165143933262531
 11
6.666666666666667
 21
5.555555555555555
 31
1.1209041848826677
 12
6.666666666666667
 22
6.666666666666667
 32
1.3015189336221953
 13
5.555555555555555
 23
6.666666666666667
 33
0.26226618807215285
  0
3DFACE
  5
63
330
17
100
AcDbEntity
  8
TestLayer
100
AcDbFace
 10
6.666666666666667
 20
5.555555555555555
 30
1.1209041848826677
 11
7.777777777777779
 21
5.555555555555555
 31
1.7438508452553227
 12
7.777777777777779
 22
6.666666666666667
 32
1.9244655939948503
 13
6.666666666666667
 23
6.666666666666667
 33
1.3015189336221953
  0
3DFACE
  5
64
330
17
100
AcDbEntity
  8
TestLayer
100
AcDbFace
 10
7.777777777777779
 20
5.555555555555555
 30
1.7438508452553227
 11
8.88888888888889
 21
5.555555555555555
 31
1.2573586327857307
 12
8.88888888888889
 22
6.666666666666667
 32
1.4379733815252582
 13
7.777777777777779
 23
6.666666666666667
 33
1.9244655939948503
  0
3DFACE
  5
65
330
17
100
AcDbEntity
  8
TestLayer
100
AcDbFace
 10
8.88888888888889
 20
5.555555555555555
 30
1.2573586327857307
 11
10.0
 21
5.555555555555555
 31
0.20273184342207795
 12
10.0
 22
6.666666666666667
 32
0.3833465921616055
 13
8.88888888888889
 23
6.666666666666667
 33
1.4379733815252582
  0
3DFACE
  5
66
330
17
100
AcDbEntity
  8
TestLayer
100
AcDbFace
 10
0.0
 20
6.666666666666667
 30
0.9273677030509753
 11
1.1111111111111112
 21
6.666666666666667
 31
1.8235599040809316
 12
1.1111111111111112
 22
7.777777777777779
 32
0.9723223256540274
 13
0.0
 23
7.777777777777779
 33
0.07613012462407105
  0
3DFACE
  5
67
330
17
100
AcDbEntity
  8
TestLayer
100
AcDbFace
 10
1.1111111111111112
 20
6.666666666666667
 30
1.8235599040809316
 11
2.2222222222222223
 21
6.666666666666667
 31
1.7225877600740245
 12
2.2222222222222223
 22
7.777777777777779
 32
0.8713501816471202
 13
1.1111111111111112
 23
7.777777777777779
 33
0.9723223256540274
  0
3DFACE
  5
68
330
17
100
AcDbEntity
  8
TestLayer
100
AcDbFace
 10
2.2222222222222223
 20
6.666666666666667
 30
1.7225877600740245
 11
3.3333333333333335
 21
6.666666666666667
 31
0.7367997401754899
 12
3.3333333333333335
 22
7.777777777777779
 32
-0.11443783825141433
 13
2.2222222222222223
 23
7.777777777777779
 33
0.8713501816471202
  0
3DFACE
  5
69
330
17
100
AcDbEntity
  8
TestLayer
100
AcDbFace
 10
3.3333333333333335
 20
6.666666666666667
 30
0.7367997401754899
 11
4.444444444444445
 21
6.666666666666667
 31
-0.03694941387780293
 12
4.444444444444445
 22
7.777777777777779
 32
-0.8881869923047071
 13
3.3333333333333335
 23
7.777777777777779
 33
-0.11443783825141433
  0
3DFACE
  5
6A
330
17
100
AcDbEntity
  8
TestLayer
100
AcDbFace
 10
4.444444444444445
 20
6.666666666666667
 30
-0.03694941387780293
 11
5.555555555555555
 21
6.666666666666667
 31
0.26226618807215285
 12
5.555555555555555
 22
7.777777777777779
 32
-0.5889713903547513
 13
4.444444444444445
 23
7.777777777777779
 33
-0.8881869923047071
  0
3DFACE
  5
6B
330
17
100
AcDbEntity
  8
TestLayer
100
AcDbFace
 10
5.555555555555555
 20
6.666666666666667
 30
0.26226618807215285
 11
6.666666666666667
 21
6.666666666666667
 31
1.3015189336221953
 12
6.666666666666667
 22
7.777777777777779
 32
0.450281355195291
 13
5.555555555555555
 23
7.777777777777779
 33
-0.5889713903547513
  0
3DFACE
  5
6C
330
17
100
AcDbEntity
  8
TestLayer
100
AcDbFace
 10
6.666666666666667
 20
6.666666666666667
 30
1.3015189336221953
 11
7.777777777777779
 21
6.666666666666667
 31
1.9244655939948503
 12
7.777777777777779
 22
7.777777777777779
 32
1.073228015567946
 13
6.666666666666667
 23
7.777777777777779
 33
0.450281355195291
  0
3DFACE
  5
6D
330
17
100
AcDbEntity
  8
TestLayer
100
AcDbFace
 10
7.777777777777779
 20
6.666666666666667
 30
1.9244655939948503
 11
8.88888888888889
 21
6.666666666666667
 31
1.4379733815252582
 12
8.88888888888889
 22
7.777777777777779
 32
0.586735803098354
 13
7.777777777777779
 23
7.777777777777779
 33
1.073228015567946
  0
3DFACE
  5
6E
330
17
100
AcDbEntity
  8
TestLayer
100
AcDbFace
 10
8.88888888888889
 20
6.666666666666667
 30
1.4379733815252582
 11
10.0
 21
6.666666666666667
 31
0.3833465921616055
 12
10.0
 22
7.777777777777779
 32
-0.46789098626529874
 13
8.88888888888889
 23
7.777777777777779
 33
0.586735803098354
  0
3DFACE
  5
6F
330
17
100
AcDbEntity
  8
TestLayer
100
AcDbFace
 10
0.0
 20
7.777777777777779
 30
0.07613012462407105
 11
1.1111111111111112
 21
7.777777777777779
 31
0.9723223256540274
 12
1.1111111111111112
 22
8.88888888888889
 32
0.03637719702629438
 13
0.0
 23
8.88888888888889
 33
-0.859815004003662
  0
3DFACE
  5
70
330
17
100
AcDbEntity
  8
TestLayer
100
AcDbFace
 10
1.1111111111111112
 20
7.777777777777779
 30
0.9723223256540274
 11
2.2222222222222223
 21
7.777777777777779
 31
0.8713501816471202
 12
2.2222222222222223
 22
8.88888888888889
 32
-0.06459494698061286
 13
1.1111111111111112
 23
8.88888888888889
 33
0.03637719702629438
  0
3DFACE
  5
71
330
17
100
AcDbEntity
  8
TestLayer
100
AcDbFace
 10
2.2222222222222223
 20
7.777777777777779
 30
0.8713501816471202
 11
3.3333333333333335
 21
7.777777777777779
 31
-0.11443783825141433
 12
3.3333333333333335
 22
8.88888888888889
 32
-1.0503829668791473
 13
2.2222222222222223
 23
8.88888888888889
 33
-0.06459494698061286
  0
3DFACE
  5
72
330
17
100
AcDbEntity
  8
TestLayer
100
AcDbFace
 10
3.3333333333333335
 20
7.777777777777779
 30
-0.11443783825141433
 11
4.444444444444445
 21
7.777777777777779
 31
-0.8881869923047071
 12
4.444444444444445
 22
8.88888888888889
 32
-1.8241321209324401
 13
3.3333333333333335
 23
8.88888888888889
 33
-1.0503829668791473
  0
3DFACE
  5
73
330
17
100
AcDbEntity
  8
TestLayer
100
AcDbFace
 10
4.444444444444445
 20
7.777777777777779
 30
-0.8881869923047071
 11
5.555555555555555
 21
7.777777777777779
 31
-0.5889713903547513
 12
5.555555555555555
 22
8.88888888888889
 32
-1.5249165189824843
 13
4.444444444444445
 23
8.88888888888889
 33
-1.8241321209324401
  0
3DFACE
  5
74
330
17
100
AcDbEntity
  8
TestLayer
100
AcDbFace
 10
5.555555555555555
 20
7.777777777777779
 30
-0.5889713903547513
 11
6.666666666666667
 21
7.777777777777779
 31
0.450281355195291
 12
6.666666666666667
 22
8.88888888888889
 32
-0.485663773432442
 13
5.555555555555555
 23
8.88888888888889
 33
-1.5249165189824843
  0
3DFACE
  5
75
330
17
100
AcDbEntity
  8
TestLayer
100
AcDbFace
 10
6.666666666666667
 20
7.777777777777779
 30
0.450281355195291
 11
7.777777777777779
 21
7.777777777777779
 31
1.073228015567946
 12
7.777777777777779
 22
8.88888888888889
 32
0.13728288694021296
 13
6.666666666666667
 23
8.88888888888889
 33
-0.485663773432442
  0
3DFACE
  5
76
330
17
100
AcDbEntity
  8
TestLayer
100
AcDbFace
 10
7.777777777777779
 20
7.777777777777779
 30
1.073228015567946
 11
8.88888888888889
 21
7.777777777777779
 31
0.586735803098354
 12
8.88888888888889
 22
8.88888888888889
 32
-0.349209325529379
 13
7.777777777777779
 23
8.88888888888889
 33
0.13728288694021296
  0
3DFACE
  5
77
330
17
100
AcDbEntity
  8
TestLayer
100
AcDbFace
 10
8.88888888888889
 20
7.777777777777779
 30
0.586735803098354
 11
10.0
 21
7.777777777777779
 31
-0.46789098626529874
 12
10.0
 22
8.88888888888889
 32
-1.4038361148930316
 13
8.88888888888889
 23
8.88888888888889
 33
-0.349209325529379
  0
3DFACE
  5
78
330
17
100
AcDbEntity
  8
TestLayer
100
AcDbFace
 10
0.0
 20
8.88888888888889
 30
-0.859815004003662
 11
1.1111111111111112
 21
8.88888888888889
 31
0.03637719702629438
 12
1.1111111111111112
 22
10.0
 32
0.0571206719535039
 13
0.0
 23
10.0
 33
-0.8390715290764524
  0
3DFACE
  5
79
330
17
100
AcDbEntity
  8
TestLayer
100
AcDbFace
 10
1.1111111111111112
 20
8.88888888888889
 30
0.03637719702629438
 11
2.2222222222222223
 21
8.88888888888889
 31
-0.06459494698061286
 12
2.2222222222222223
 22
10.0
 32
-0.04385147205340334
 13
1.1111111111111112
 23
10.0
 33
0.0571206719535039
  0
3DFACE
  5
7A
330
17
100
AcDbEntity
  8
TestLayer
100
AcDbFace
 10
2.2222222222222223
 20
8.88888888888889
 30
-0.06459494698061286
 11
3.3333333333333335
 21
8.88888888888889
 31
-1.0503829668791473
 12
3.3333333333333335
 22
10.0
 32
-1.0296394919519378
 13
2.2222222222222223
 23
10.0
 33
-0.04385147205340334
  0
3DFACE
  5
7B
330
17
100
AcDbEntity
  8
TestLayer
100
AcDbFace
 10
3.3333333333333335
 20
8.88888888888889
 30
-1.0503829668791473
 11
4.444444444444445
 21
8.88888888888889
 31
-1.8241321209324401
 12
4.444444444444445
 22
10.0
 32
-1.8033886460052306
 13
3.3333333333333335
 23
10.0
 33
-1.0296394919519378
  0
3DFACE
  5
7C
330
17
100
AcDbEntity
  8
TestLayer
100
AcDbFace
 10
4.444444444444445
 20
8.88888888888889
 30
-1.8241321209324401
 11
5.555555555555555
 21
8.88888888888889
 31
-1.5249165189824843
 12
5.555555555555555
 22
10.0
 32
-1.5041730440552747
 13
4.444444444444445
 23
10.0
 33
-1.8033886460052306
  0
3DFACE
  5
7D
330
17
100
AcDbEntity
  8
TestLayer
100
AcDbFace
 10
5.555555555555555
 20
8.88888888888889
 30
-1.5249165189824843
 11
6.666666666666667
 21
8.88888888888889
 31
-0.485663773432442
 12
6.666666666666667
 22
10.0
 32
-0.4649202985052325
 13
5.555555555555555
 23
10.0
 33
-1.5041730440552747
  0
3DFACE
  5
7E
330
17
100
AcDbEntity
  8
TestLayer
100
AcDbFace
 10
6.666666666666667
 20
8.88888888888889
 30
-0.485663773432442
 11
7.777777777777779
 21
8.88888888888889
 31
0.13728288694021296
 12
7.777777777777779
 22
10.0
 32
0.15802636186742247
 13
6.666666666666667
 23
10.0
 33
-0.4649202985052325
  0
3DFACE
  5
7F
330
17
100
AcDbEntity
  8
TestLayer
100
AcDbFace
 10
7.777777777777779
 20
8.88888888888889
 30
0.13728288694021296
 11
8.88888888888889
 21
8.88888888888889
 31
-0.349209325529379
 12
8.88888888888889
 22
10.0
 32
-0.3284658506021695
 13
7.777777777777779
 23
10.0
 33
0.15802636186742247
  0
3DFACE
  5
80
330
17
100
AcDbEntity
  8
TestLayer
100
AcDbFace
 10
8.88888888888889
 20
8.88888888888889
 30
-0.349209325529379
 11
10.0
 21
8.88888888888889
 31
-1.4038361148930316
 12
10.0
 22
10.0
 32
-1.383092639965822
 13
8.88888888888889
 23
10.0
 33
-0.3284658506021695
  0
ENDSEC
  0
SECTION
  2
OBJECTS
  0
DICTIONARY
  5
A
330
0
100
AcDbDictionary
281
1
  3
ACAD_COLOR
350
B
  3
ACAD_GROUP
350
C
  3
ACAD_LAYOUT
350
D
  3
ACAD_MATERIAL
350
E
  3
ACAD_MLEADERSTYLE
350
F
  3
ACAD_MLINESTYLE
350
10
  3
ACAD_PLOTSETTINGS
350
11
  3
ACAD_PLOTSTYLENAME
350
12
  3
ACAD_SCALELIST
350
14
  3
ACAD_TABLESTYLE
350
15
  3
ACAD_VISUALSTYLE
350
16
  3
EZDXF_META
350
2D
  0
DICTIONARY
  5
B
330
A
100
AcDbDictionary
281
1
  0
DICTIONARY
  5
C
330
A
100
AcDbDictionary
281
1
  0
DICTIONARY
  5
D
330
A
100
AcDbDictionary
281
1
  3
Model
350
1A
  3
Layout1
350
1E
  0
DICTIONARY
  5
E
330
A
100
AcDbDictionary
281
1
  3
ByBlock
350
1F
  3
ByLayer
350
20
  3
Global
350
21
  0
DICTIONARY
  5
F
330
A
100
AcDbDictionary
281
1
  3
Standard
350
2C
  0
DICTIONARY
  5
10
330
A
100
AcDbDictionary
281
1
  3
Standard
350
22
  0
DICTIONARY
  5
11
330
A
100
AcDbDictionary
281
1
  0
ACDBDICTIONARYWDFLT
  5
12
330
A
100
AcDbDictionary
281
1
  3
Normal
350
13
100
AcDbDictionaryWithDefault
340
13
  0
ACDBPLACEHOLDER
  5
13
330
12
  0
DICTIONARY
  5
14
330
A
100
AcDbDictionary
281
1
  0
DICTIONARY
  5
15
330
A
100
AcDbDictionary
281
1
  0
DICTIONARY
  5
16
330
A
100
AcDbDictionary
281
1
  0
LAYOUT
  5
1A
330
D
100
AcDbPlotSettings
  1

  4
A3
  6

 40
7.5
 41
20.0
 42
7.5
 43
20.0
 44
420.0
 45
297.0
 46
0.0
 47
0.0
 48
0.0
 49
0.0
140
0.0
141
0.0
142
1.0
143
1.0
 70
1024
 72
1
 73
0
 74
5
  7

 75
16
 76
0
 77
2
 78
300
147
1.0
148
0.0
149
0.0
100
AcDbLayout
  1
Model
 70
1
 71
0
 10
0.0
 20
0.0
 11
420.0
 21
297.0
 12
0.0
 22
0.0
 32
0.0
 14
1e+20
 24
1e+20
 34
1e+20
 15
-1e+20
 25
-1e+20
 35
-1e+20
146
0.0
 13
0.0
 23
0.0
 33
0.0
 16
1.0
 26
0.0
 36
0.0
 17
0.0
 27
1.0
 37
0.0
 76
1
330
17
  0
LAYOUT
  5
1E
330
D
100
AcDbPlotSettings
  1

  4
A3
  6

 40
7.5
 41
20.0
 42
7.5
 43
20.0
 44
420.0
 45
297.0
 46
0.0
 47
0.0
 48
0.0
 49
0.0
140
0.0
141
0.0
142
1.0
143
1.0
 70
0
 72
1
 73
0
 74
5
  7

 75
16
 76
0
 77
2
 78
300
147
1.0
148
0.0
149
0.0
100
AcDbLayout
  1
Layout1
 70
1
 71
1
 10
0.0
 20
0.0
 11
420.0
 21
297.0
 12
0.0
 22
0.0
 32
0.0
 14
1e+20
 24
1e+20
 34
1e+20
 15
-1e+20
 25
-1e+20
 35
-1e+20
146
0.0
 13
0.0
 23
0.0
 33
0.0
 16
1.0
 26
0.0
 36
0.0
 17
0.0
 27
1.0
 37
0.0
 76
1
330
1B
  0
MATERIAL
  5
1F
102
{ACAD_REACTORS
330
E
102
}
330
E
100
AcDbMaterial
  1
ByBlock
  2

 70
0
 40
1.0
 71
1
 41
1.0
 91
-1023410177
 42
1.0
 72
1
  3

 73
1
 74
1
 75
1
 44
0.5
 73
0
 45
1.0
 46
1.0
 77
1
  4

 78
1
 79
1
170
1
 48
1.0
171
1
  6

172
1
173
1
174
1
140
1.0
141
1.0
175
1
  7

176
1
177
1
178
1
143
1.0
179
1
  8

270
1
271
1
272
1
145
1.0
146
1.0
273
1
  9

274
1
275
1
276
1
 42
1.0
 72
1
  3

 73
1
 74
1
 75
1
 94
63
  0
MATERIAL
  5
20
102
{ACAD_REACTORS
330
E
102
}
330
E
100
AcDbMaterial
  1
ByLayer
  2

 70
0
 40
1.0
 71
1
 41
1.0
 91
-1023410177
 42
1.0
 72
1
  3

 73
1
 74
1
 75
1
 44
0.5
 73
0
 45
1.0
 46
1.0
 77
1
  4

 78
1
 79
1
170
1
 48
1.0
171
1
  6

172
1
173
1
174
1
140
1.0
141
1.0
175
1
  7

176
1
177
1
178
1
143
1.0
179
1
  8

270
1
271
1
272
1
145
1.0
146
1.0
273
1
  9

274
1
275
1
276
1
 42
1.0
 72
1
  3

 73
1
 74
1
 75
1
 94
63
  0
MATERIAL
  5
21
102
{ACAD_REACTORS
330
E
102
}
330
E
100
AcDbMaterial
  1
Global
  2

 70
0
 40
1.0
 71
1
 41
1.0
 91
-1023410177
 42
1.0
 72
1
  3

 73
1
 74
1
 75
1
 44
0.5
 73
0
 45
1.0
 46
1.0
 77
1
  4

 78
1
 79
1
170
1
 48
1.0
171
1
  6

172
1
173
1
174
1
140
1.0
141
1.0
175
1
  7

176
1
177
1
178
1
143
1.0
179
1
  8

270
1
271
1
272
1
145
1.0
146
1.0
273
1
  9

274
1
275
1
276
1
 42
1.0
 72
1
  3

 73
1
 74
1
 75
1
 94
63
  0
MLINESTYLE
  5
22
102
{ACAD_REACTORS
330
10
102
}
330
10
100
AcDbMlineStyle
  2
Standard
 70
0
  3

 62
256
 51
90.0
 52
90.0
 71
2
 49
0.5
 62
256
  6
BYLAYER
 49
-0.5
 62
256
  6
BYLAYER
  0
MLEADERSTYLE
  5
2C
102
{ACAD_REACTORS
330
F
102
}
330
F
100
AcDbMLeaderStyle
179
2
170
2
171
1
172
0
 90
2
 40
0.0
 41
0.0
173
1
 91
-1056964608
 92
-2
290
1
 42
2.0
291
1
 43
8.0
  3
Standard
 44
4.0
300

342
29
174
1
175
1
176
0
178
1
 93
-1056964608
 45
4.0
292
0
297
0
 46
4.0
 94
-1056964608
 47
1.0
 49
1.0
140
1.0
294
1
141
0.0
177
0
142
1.0
295
0
296
0
143
3.75
271
0
272
9
273
9
  0
DICTIONARY
  5
2D
330
A
100
AcDbDictionary
280
1
281
1
  3
CREATED_BY_EZDXF
350
2E
  3
WRITTEN_BY_EZDXF
350
83
  0
DICTIONARYVAR
  5
2E
330
2D
100
DictionaryVariables
280
0
  1
1.4.3 @ 2025-11-19T07:08:50.519137+00:00
  0
DICTIONARYVAR
  5
83
330
2D
100
DictionaryVariables
280
0
  1
1.4.3 @ 2025-11-19T07:08:50.522927+00:00
  0
ENDSEC
  0
EOF
